<svg width="30" height="31" viewBox="0 0 30 31" fill="none" xmlns="http://www.w3.org/2000/svg">
<path d="M26.4844 26.0625C26.4844 25.418 25.957 24.8906 25.3125 24.8906C24.668 24.8906 24.1406 25.418 24.1406 26.0625C24.1406 26.707 24.668 27.2344 25.3125 27.2344C25.957 27.2344 26.4844 26.707 26.4844 26.0625ZM21.5625 24.8906C20.918 24.8906 20.3906 25.418 20.3906 26.0625C20.3906 26.707 20.918 27.2344 21.5625 27.2344C22.207 27.2344 22.7344 26.707 22.7344 26.0625C22.7344 25.418 22.207 24.8906 21.5625 24.8906ZM30 22.0781C30 20.6719 28.8281 19.5 27.4219 19.5H20.1562V13.6992H23.2031C25.3125 13.6992 26.3672 11.1797 24.9023 9.71484L16.6406 1.45312C15.7031 0.574219 14.2383 0.574219 13.3008 1.45312L5.09766 9.71484C3.57422 11.1797 4.62891 13.6992 6.73828 13.6992H9.84375V19.5H2.57812C1.11328 19.5 0 20.6719 0 22.0781V28.1719C0 29.6367 1.11328 30.75 2.57812 30.75H27.4219C28.8281 30.75 30 29.6367 30 28.1719V22.0781ZM11.7188 11.8242H6.73828C6.32812 11.8242 6.09375 11.2969 6.38672 11.0039L14.6484 2.80078C14.8242 2.625 15.1172 2.625 15.293 2.80078L23.5547 11.0039C23.8477 11.3555 23.6133 11.8242 23.2031 11.8242H18.2812V22.7812C18.2812 23.0742 18.0469 23.25 17.8125 23.25H12.1875C11.8945 23.25 11.7188 23.0742 11.7188 22.7812V11.8242ZM28.125 22.0781V28.1719C28.125 28.582 27.7734 28.875 27.4219 28.875H2.57812C2.16797 28.875 1.875 28.582 1.875 28.1719V22.0781C1.875 21.7266 2.16797 21.375 2.57812 21.375H9.84375V22.7812C9.84375 24.1289 10.8398 25.125 12.1875 25.125H17.8125C19.1016 25.125 20.1562 24.1289 20.1562 22.7812V21.375H27.4219C27.7734 21.375 28.125 21.7266 28.125 22.0781Z" fill="#979797"/>
</svg>
